<svg width="136" height="50" viewBox="0 0 136 50" fill="none" xmlns="http://www.w3.org/2000/svg">
<path d="M98.3455 32.8123V22.2057H102.12V32.8123H98.3455ZM102.12 27.0426L100.428 25.6111C100.847 24.4109 101.404 23.5071 102.098 22.8998C102.792 22.2924 103.696 21.9888 104.809 21.9888C105.315 21.9888 105.749 22.0538 106.111 22.184C106.487 22.3141 106.805 22.5166 107.065 22.7913L104.874 25.7195C104.759 25.5894 104.592 25.4882 104.375 25.4158C104.173 25.3291 103.942 25.2857 103.681 25.2857C103.19 25.2857 102.806 25.4375 102.532 25.7412C102.257 26.0304 102.12 26.4642 102.12 27.0426Z" fill="#F5F5F5"/>
<path d="M91.6927 33.0509C90.507 33.0509 89.4586 32.8195 88.5476 32.3568C87.6366 31.8796 86.9208 31.2217 86.4002 30.383C85.8797 29.5443 85.6194 28.5827 85.6194 27.4982C85.6194 26.4281 85.8724 25.481 86.3785 24.6567C86.8847 23.818 87.5715 23.1601 88.4391 22.6829C89.3212 22.1913 90.3117 21.9454 91.4107 21.9454C92.4808 21.9454 93.4279 22.1768 94.2522 22.6395C95.0909 23.0878 95.7416 23.7168 96.2043 24.5266C96.6815 25.3219 96.9201 26.2329 96.9201 27.2596C96.9201 27.4765 96.9056 27.7006 96.8767 27.932C96.8622 28.1489 96.8189 28.4019 96.7465 28.6911L87.398 28.7345V26.3052L95.2499 26.2401L93.5581 27.303C93.5436 26.7101 93.4568 26.2257 93.2978 25.8497C93.1387 25.4593 92.9074 25.1628 92.6037 24.9604C92.3 24.758 91.9168 24.6567 91.4541 24.6567C90.9769 24.6567 90.5648 24.7724 90.2177 25.0038C89.8707 25.2351 89.6032 25.5605 89.4152 25.9798C89.2272 26.3992 89.1332 26.9053 89.1332 27.4982C89.1332 28.1055 89.2344 28.6261 89.4369 29.0599C89.6393 29.4792 89.9285 29.7974 90.3045 30.0143C90.6805 30.2312 91.1432 30.3396 91.6927 30.3396C92.2133 30.3396 92.6688 30.2529 93.0592 30.0793C93.4641 29.9058 93.8256 29.6383 94.1437 29.2768L96.1175 31.2506C95.597 31.8435 94.9607 32.2917 94.2088 32.5954C93.4713 32.8991 92.6326 33.0509 91.6927 33.0509Z" fill="#F5F5F5"/>
<path d="M81.3264 32.8123L77.9861 27.2595L81.3047 22.2057H85.4476L81.3264 27.9103L81.4349 26.5221L85.6645 32.8123H81.3264ZM74.5156 32.8123V17H78.2898V32.8123H74.5156Z" fill="#F5F5F5"/>
<path d="M69.1045 32.8123L65.7642 27.2595L69.0828 22.2057H73.2257L69.1045 27.9103L69.2129 26.5221L73.4426 32.8123H69.1045ZM62.2937 32.8123V17H66.0678V32.8123H62.2937Z" fill="#F5F5F5"/>
<path d="M55.6409 33.0509C54.4552 33.0509 53.4068 32.8195 52.4958 32.3568C51.5848 31.8796 50.869 31.2217 50.3485 30.383C49.8279 29.5443 49.5676 28.5827 49.5676 27.4982C49.5676 26.4281 49.8207 25.481 50.3268 24.6567C50.8329 23.818 51.5198 23.1601 52.3874 22.6829C53.2695 22.1913 54.26 21.9454 55.359 21.9454C56.429 21.9454 57.3762 22.1768 58.2004 22.6395C59.0391 23.0878 59.6898 23.7168 60.1525 24.5266C60.6297 25.3219 60.8683 26.2329 60.8683 27.2596C60.8683 27.4765 60.8539 27.7006 60.8249 27.932C60.8105 28.1489 60.7671 28.4019 60.6948 28.6911L51.3462 28.7345V26.3052L59.1982 26.2401L57.5063 27.303C57.4918 26.7101 57.4051 26.2257 57.246 25.8497C57.087 25.4593 56.8556 25.1628 56.5519 24.9604C56.2483 24.758 55.8651 24.6567 55.4023 24.6567C54.9252 24.6567 54.513 24.7724 54.166 25.0038C53.8189 25.2351 53.5514 25.5605 53.3634 25.9798C53.1755 26.3992 53.0815 26.9053 53.0815 27.4982C53.0815 28.1055 53.1827 28.6261 53.3851 29.0599C53.5876 29.4792 53.8768 29.7974 54.2527 30.0143C54.6287 30.2312 55.0914 30.3396 55.6409 30.3396C56.1615 30.3396 56.617 30.2529 57.0074 30.0793C57.4123 29.9058 57.7738 29.6383 58.0919 29.2768L60.0658 31.2506C59.5452 31.8435 58.909 32.2917 58.157 32.5954C57.4195 32.8991 56.5808 33.0509 55.6409 33.0509Z" fill="#F5F5F5"/>
<path d="M41.1116 32.8123V22.2057H44.8857V32.8123H41.1116ZM44.8857 27.0426L43.1938 25.6111C43.6132 24.4109 44.1699 23.5071 44.864 22.8998C45.5581 22.2924 46.4619 21.9888 47.5753 21.9888C48.0814 21.9888 48.5152 22.0538 48.8767 22.184C49.2527 22.3141 49.5708 22.5166 49.8311 22.7913L47.6404 25.7195C47.5247 25.5894 47.3584 25.4882 47.1415 25.4158C46.9391 25.3291 46.7077 25.2857 46.4474 25.2857C45.9558 25.2857 45.5726 25.4375 45.2978 25.7412C45.0231 26.0304 44.8857 26.4642 44.8857 27.0426Z" fill="#F5F5F5"/>
<path d="M33.0501 32.8123V17.5423H36.9327V32.8123H33.0501ZM28.3433 20.7742V17.4338H41.6395V20.7742H28.3433Z" fill="#F5F5F5"/>
</svg>
